<?xml version="1.0" standalone="no"?><!DOCTYPE svg PUBLIC "-//W3C//DTD SVG 1.1//EN" "http://www.w3.org/Graphics/SVG/1.1/DTD/svg11.dtd"><svg t="1667655957287" class="icon" viewBox="0 0 1024 1024" version="1.1" xmlns="http://www.w3.org/2000/svg" p-id="14228" xmlns:xlink="http://www.w3.org/1999/xlink" width="200" height="200"><path d="M87.628 815.027v-606.04c0.19-67.26 54.67-121.73 121.93-121.93h726.79v606.05" fill="#FFFBF1" p-id="14229"></path><path d="M87.628 838.077c-12.73 0-23.04-10.32-23.04-23.04v-606.05c0.23-79.74 65.24-144.75 144.9-144.98h726.86c12.73 0 23.04 10.32 23.04 23.04v606.05c0 12.72-10.31 23.04-23.04 23.04-12.73 0-23.04-10.32-23.04-23.04v-583h-703.75c-54.34 0.17-98.73 44.55-98.89 98.96v605.99c0 12.71-10.31 23.03-23.04 23.03z" fill="#363432" p-id="14230"></path><path d="M209.578 716.147c-12.73 0-23.04-10.32-23.04-23.04V87.037c0-12.72 10.31-23.04 23.04-23.04s23.04 10.32 23.04 23.04v606.06c0 12.73-10.31 23.05-23.04 23.05z" fill="#363432" p-id="14231"></path><path d="M209.578 693.107c-67.26 0.19-121.73 54.67-121.93 121.93 0.19 67.26 54.67 121.73 121.93 121.93h726.79v-243.86h-726.79z" fill="#EF7E20" p-id="14232"></path><path d="M936.368 959.997h-726.79c-79.73-0.23-144.74-65.24-144.97-144.9 0.23-79.8 65.24-144.81 144.9-145.04h726.86c12.73 0 23.04 10.32 23.04 23.04v243.86c0 12.72-10.31 23.04-23.04 23.04z m-726.78-243.85c-54.38 0.18-98.75 44.57-98.9 98.96 0.16 54.27 44.55 98.66 98.96 98.82h703.68v-197.78h-703.75 0.01z" fill="#363432" p-id="14233"></path><path d="M840.738 795.717h-631.16c-8.48 0-15.36-6.87-15.36-15.36s6.88-15.36 15.36-15.36h631.16c8.48 0 15.36 6.87 15.36 15.36s-6.88 15.36-15.36 15.36z" fill="#363432" p-id="14234"></path><path d="M840.738 874.637h-631.16c-8.48 0-15.36-6.87-15.36-15.36s6.88-15.36 15.36-15.36h631.16c8.48 0 15.36 6.87 15.36 15.36s-6.88 15.36-15.36 15.36z" fill="#363432" p-id="14235"></path><path d="M821.578 268.737l-118.27-40.66-118.35 40.66v-181.7h236.7l-0.08 181.7z" fill="#EF7E20" p-id="14236"></path><path d="M584.958 291.777c-4.74 0-9.43-1.46-13.39-4.29a23.025 23.025 0 0 1-9.65-18.75v-181.7c0-12.72 10.31-23.04 23.04-23.04h236.7c6.11 0 11.98 2.43 16.3 6.75a23.06 23.06 0 0 1 6.74 16.31l-0.08 181.7c0 7.44-3.6 14.42-9.66 18.74a22.93 22.93 0 0 1-20.87 3.05l-110.78-38.1-110.87 38.1c-2.43 0.82-4.96 1.23-7.48 1.23z m23.04-181.7v126.38l87.83-30.18a23.42 23.42 0 0 1 14.98 0l87.75 30.18 0.06-126.38h-190.62z" fill="#363432" p-id="14237"></path></svg>